<svg xmlns="http://www.w3.org/2000/svg" width="1300" height="900" viewBox="0 0 1300 900">
  <defs>
    <style>
      .cls-1 {
        fill: #fff;
      }

      .cls-2 {
        fill: #ebf3fa;
      }

      .cls-3 {
        fill: #d2e0ff;
      }

      .cls-4 {
        fill: #bacdfe;
      }

      .cls-5 {
        fill: #dee9fd;
      }

      .cls-6 {
        fill: #bbd0ff;
      }

      .cls-7 {
        fill: #739af0;
      }

      .cls-8 {
        fill: #f3faff;
      }

      .cls-9 {
        fill: #2b478b;
      }

      .cls-10 {
        fill: #aec3ff;
      }

      .cls-11 {
        fill: #8c9df4;
      }

      .cls-12 {
        fill: #afcdfb;
      }

      .cls-13 {
        fill: #f99746;
      }

      .cls-14 {
        fill: #ffb27d;
      }

      .cls-15 {
        fill: #6980e2;
      }

      .cls-16 {
        fill: #1c4b8e;
      }

      .cls-17 {
        fill: #ffa561;
      }

      .cls-18 {
        fill: #f4904d;
      }

      .cls-19 {
        fill: #fca56b;
      }

      .cls-20 {
        fill: #163560;
      }

      .cls-21 {
        fill: #1f4d84;
      }

      .cls-22 {
        fill: #cfe1f9;
      }

      .cls-23 {
        fill: #c8dcfb;
      }

      .cls-24 {
        fill: #93b5f5;
      }

      .cls-25 {
        fill: #d3e4fc;
      }

      .cls-26 {
        fill: #b1c9fc;
      }

      .cls-27 {
        fill: #698ebf;
      }

      .cls-28 {
        fill: #233862;
      }

      .cls-29 {
        fill: #ef873a;
      }

      .cls-30 {
        fill: #9fb1ff;
      }

      .cls-31 {
        fill: #182d4c;
      }

      .cls-32 {
        fill: #f2ccaa;
      }

      .cls-33 {
        fill: #e8945b;
      }

      .cls-34 {
        fill: #ed7d2b;
      }

      .cls-35 {
        fill: #ed975d;
      }

      .cls-36 {
        fill: #a8d29f;
      }

      .cls-37 {
        fill: #333;
        font-size: 39px;
        font-family: Montserrat-Bold, Montserrat;
        font-weight: 700;
      }
    </style>
  </defs>
  <g id="Group_1" data-name="Group 1" transform="translate(-237.19 -72.194)">
    <path id="path14" class="cls-1" d="M0-1766.66H1300v-900H0Z" transform="translate(237.19 2738.854)"/>
    <path id="path16" class="cls-2" d="M459.094-1709.29s-176.017-156.073-42.211-304c142.46-157.491,16.246-359.676,209.627-441.252,120.446-50.809,189.359-20.79,242.876,9.229,39.373,22.086,70.417,44.172,107.519,34.061,174.572-47.574,396.01-24.147,359.164,206.937-46.25,290.079,143.5,253.08,30.806,495.99l-907.781-.967" transform="translate(-10.319 2616.45)"/>
    <path id="path18" class="cls-3" d="M2244.288-1865.767s29.211-128.588,127.768-142.722c0,0,19.175-2.448,25.563,19.481s-31.742,22.086-55.311,30.906-78.507,46.21-98.02,92.335" transform="translate(-1277.703 2302.87)"/>
    <path id="path20" class="cls-3" d="M2236.349-1943.328s-10.244-106.511,61.677-144.315c0,0,14.07-7.119,24.527,7.934s-18.716,25.6-34.532,38.812-48.425,56.885-51.671,97.569" transform="translate(-1272.003 2356.371)"/>
    <path id="path22" class="cls-4" d="M1177.171-1550A103.092,103.092,0,0,1,1156.24-1552c-21.981-4.68-12.4-11.12-.563-21.568,11.086-9.787,33.537-7.992,42.364-11.088v32.76a111.653,111.653,0,0,1-20.869,1.89m-42.965-23.562c-22.807,0-39.964-43.983-39.964-43.983a37.83,37.83,0,0,0,11.417,1.552c15.827,0,34.469-6.858,35.364-11.5,1.127-5.855-42.271-5.27-49.034-7.025s-18.6-15.8-11.273-43.9c4.509-17.289,23.532-20.615,37.5-20.615a90.913,90.913,0,0,1,15.482,1.3s31,49.162,40.018,50.332a1.84,1.84,0,0,0,.308.023c8.051,0-18.908-47.43-18.908-47.43a20.843,20.843,0,0,1,2.1-.1c10.317,0,27.5,6.277,40.824,11.9v59.175c-39.412-26.617-96.472-45.805-96.472-45.805,47.9,20.12,77.869,37.751,96.472,52.439v26.064a39.06,39.06,0,0,0-11.436-1.444c-1.595,0-3.272.063-5,.2-14.655,1.17-21.982,16.389-45.655,18.729-.585.058-1.165.085-1.743.085" transform="translate(-490.731 2097.804)"/>
    <path id="path24" class="cls-4" d="M1246.153-1559.5c-18.6-14.688-48.572-32.319-96.472-52.438,0,0,57.06,19.188,96.472,45.806v6.633" transform="translate(-538.844 2040.105)"/>
    <path id="path26" class="cls-5" d="M816.48-832.374c-32.971,0-71.577-19.255-71.577-19.255,27.989-13.586,56.171-63.063,50.83-72.3a2.215,2.215,0,0,0-2.092-1.035c-11.739,0-61.366,47.8-71.6,53.514a21.6,21.6,0,0,1-10.374,2.282c-14.781,0-38.154-10.463-56.03-46.683-23.08-46.76,48.154-92.628,48.154-92.628s70.461,18.918,100.5,18.913c5.551,0,9.726-.648,11.817-2.178,13.412-9.81-80.3-39.843-80.3-39.843,21.278-24.385,106.754-50.859,106.754-50.859s37.411,47.349,59.576,63.387q1.605,1.8,3.354,3.51,1.983,1.937,4.069,3.677v17.1c-88.192,4.37-215.814,64.346-215.814,64.346,105.235-40.36,171.612-52.812,213.474-52.812q1.183,0,2.34.014v38.7a99.289,99.289,0,0,0-18.56,16.3c-18.2,20.047-10.183,49.613-39.055,82.6-8.583,9.806-21.52,13.253-35.469,13.253m66.776-1.053c-10.815,0-7.414-16.407-4.862-36.972,2.344-18.914,18.733-37.273,31.17-51.831v76.563q-2.633,1.789-5.187,3.361c-10.036,6.188-16.744,8.878-21.121,8.878m1.187-226.543c-14.143-12.839-27.438-23.26-27.438-23.26,9.4-4.675,20.535-7.025,31.273-8.073a73.257,73.257,0,0,0-3.835,31.333" transform="translate(-202.255 1695.182)"/>
    <path id="path28" class="cls-5" d="M782.477-740.959S910.1-800.935,998.29-805.3v11.547q-1.157-.014-2.34-.013c-41.862,0-108.238,12.451-213.473,52.812" transform="translate(-290.981 1505.708)"/>
    <path id="path30" class="cls-6" d="M2517.251-833.661s8.155-51.525,46.479-43.326c0,0,24.826,8.752,35.754,24.021,0,0-49.937,8.446-47.849,18s54.99-13.577,54.99-13.577,36.638,37.256,41.163,55.584c0,0-55.41-10.814-51.125-2.093s61.447,22.761,61.447,22.761,24.383,43.159.576,60.516-41.192,10.323-45.236,4.091-18.828-50.418-23.933-47.205-3.54,36.22,7.189,50.922c0,0-49.825-1.935-55.991-26.748s5.542-37.62,1.46-52.884-11.713-24.664-12.974-15.795,10.092,33.03,4.458,48.717-8.3,27.675-20.466,7.056-23.365-61.636-9.654-75.838l13.711-14.2" transform="translate(-1448.447 1553.783)"/>
    <path id="path32" class="cls-6" d="M2575.82-643.078s-79.235-105.871-125.814-103.856c0,0-18.5,7.605-44.135,3.681l-8.251,3.1s32.43,2.016,38.675,7.42c0,0,26.936-40.5,139.525,89.654" transform="translate(-1381.202 1467.056)"/>
    <path id="path34" class="cls-6" d="M2292.688-738.863s-33.5-8.325-62.747,14.607l2.89,4.293s34.654-18.257,56.268-15.444,3.588-3.456,3.588-3.456" transform="translate(-1268.019 1462.666)"/>
    <path id="path36" class="cls-3" d="M2442.419-1651.918s-51.67-30.047-27.556-70.83c0,0,19.292-25.038,39.958-31.478,0,0-11.024,60.813,0,62.244s7.579-68.683,7.579-68.683,54.427-27.189,75.786-25.043c0,0-33.757,59.382-22.737,57.951s48.919-61.529,48.919-61.529,55.8-10.733,64.762,23.611-5.512,51.512-13.78,53.658-61.317,1.431-59.939,8.586,37.2,18.6,57.183,12.163c0,0-22.048,56.52-50.982,53.658s-37.895-21.465-55.8-22.891-31.005,3.573-22.048,8.582,39.269,1.643,53.738,14.414,26.182,20.646-.689,26.37-75.1,2.146-84.742-19.319l-9.646-21.465" transform="translate(-1388.513 2158.646)"/>
    <path id="path38" class="cls-3" d="M2645.574-1684.409s-144.682,48.649-161.218,103.023c0,0,.689,24.327-13.775,52.232v10.728s15.153-36.486,23.422-41.495c0,0-32.379-47.218,151.571-124.488" transform="translate(-1430.45 2088.114)"/>
    <path id="path40" class="cls-3" d="M2442.517-1237.51s-22.312,35.185-9.594,78.012l5.742-1.6s-5.573-47.178,6.1-70.9-2.249-5.512-2.249-5.512" transform="translate(-1402.386 1796.469)"/>
    <path id="path42" class="cls-7" d="M1446.517-1271.54h386.226v-548.482H1446.517Z" transform="translate(-739.208 2177.958)"/>
    <path id="path44" class="cls-8" d="M1497.156-1257.6h353.31v-518.571h-353.31Z" transform="translate(-773.389 2148.905)"/>
    <path id="path46" class="cls-9" d="M1815.329-1820.022v18.684c0,10.318,8.047,18.68,17.975,18.68h96.551c9.928,0,17.975-8.361,17.975-18.68v-18.684h-132.5" transform="translate(-988.156 2177.958)"/>
    <path id="path48" class="cls-10" d="M1667.057-452.564h-43.715v-4.595h43.715v4.595" transform="translate(-858.565 1275.062)"/>
    <path id="path50" class="cls-10" d="M1832.71-452.564H1789v-4.595h43.715v4.595" transform="translate(-970.381 1275.062)"/>
    <path id="path52" class="cls-10" d="M1683.966-422.351h-60.623v-4.595h60.623v4.595" transform="translate(-858.565 1255.045)"/>
    <path id="path64" class="cls-11" d="M1929.213-1454.894H1739.4v-2.542h189.817v2.542" transform="translate(-936.901 1937.745)"/>
    <path id="path66" class="cls-12" d="M2281.922-1338.589H2339.8V-1398.7h-57.881Zm60.892,3.123h-63.9v-66.357h63.9v66.357" transform="translate(-1301.076 1900.901)"/>
    <path id="path68" class="cls-13" d="M2331.773-1371.14a4.448,4.448,0,0,1-3.48-1.7l-19.716-24.768a4.814,4.814,0,0,1,.6-6.6,4.4,4.4,0,0,1,6.357.626l15.639,19.647,28.288-49.311a4.425,4.425,0,0,1,6.188-1.629,4.791,4.791,0,0,1,1.569,6.431l-31.568,55.021a4.492,4.492,0,0,1-3.531,2.273c-.117.009-.23.013-.347.013" transform="translate(-1320.399 1923.237)"/>
    <path id="path70" class="cls-10" d="M1832.352-1366.326H1690.4v-6.471h141.956v6.471" transform="translate(-903.826 1881.671)"/>
    <path id="path72" class="cls-10" d="M1821.219-1280.646H1690.4v-6.471h130.823v6.471" transform="translate(-903.826 1824.908)"/>
    <path id="path74" class="cls-10" d="M2046.812-1323.486h-38.7v-6.471h38.7v6.471" transform="translate(-1118.286 1853.289)"/>
    <path id="path76" class="cls-10" d="M1782.93-1323.486H1690.4v-6.471h92.534v6.471" transform="translate(-903.826 1853.289)"/>
    <path id="path78" class="cls-10" d="M1576.7-1368.494l-6.349,1.831-1.313-5.234,9.477-3.141h4.333v36.9H1576.7v-30.357" transform="translate(-821.908 1883.155)"/>
    <path id="path80" class="cls-10" d="M1624.023-1277.186a2.29,2.29,0,0,1,2.245-2.331,2.29,2.29,0,0,1,2.245,2.331,2.29,2.29,0,0,1-2.245,2.331,2.29,2.29,0,0,1-2.245-2.331" transform="translate(-859.024 1819.873)"/>
    <path id="path82" class="cls-12" d="M2283.446-1044.883h57.88v-60.107h-57.88Zm60.888,3.127h-63.9v-66.361h63.9v66.361" transform="translate(-1302.102 1706.321)"/>
    <path id="path84" class="cls-13" d="M2333.3-1077.423a4.444,4.444,0,0,1-3.475-1.7L2310.1-1103.9a4.819,4.819,0,0,1,.6-6.6,4.406,4.406,0,0,1,6.357.625l15.639,19.647,28.288-49.307a4.425,4.425,0,0,1,6.193-1.629,4.788,4.788,0,0,1,1.564,6.426l-31.568,55.021a4.5,4.5,0,0,1-3.531,2.277c-.113.009-.23.013-.347.013" transform="translate(-1321.429 1728.65)"/>
    <path id="path86" class="cls-10" d="M1568.2-1049.471l12.059-10.656c4.806-4.208,6.561-6.547,6.561-9.819a5.352,5.352,0,0,0-5.659-5.67c-3.2,0-5.4,1.823-8.108,5.458l-4.351-3.533c3.35-4.887,6.656-7.641,12.909-7.641,6.86,0,11.561,4.365,11.561,10.966,0,5.719-2.951,8.784-9.109,14.085l-7.206,6.237h16.666v5.616H1568.2v-5.044" transform="translate(-821.341 1688.575)"/>
    <path id="path88" class="cls-10" d="M1658.943-983.391a2.271,2.271,0,0,1,2.227-2.313,2.274,2.274,0,0,1,2.232,2.313,2.278,2.278,0,0,1-2.232,2.317,2.275,2.275,0,0,1-2.227-2.317" transform="translate(-882.595 1625.222)"/>
    <path id="path90" class="cls-10" d="M1694.009-1072.615H1843.18v-6.475H1694.009Z" transform="translate(-906.265 1687.091)"/>
    <path id="path92" class="cls-10" d="M1694.009-986.936h137.475v-6.476H1694.009Z" transform="translate(-906.265 1630.328)"/>
    <path id="path94" class="cls-10" d="M2068.539-1029.775h-40.664v-6.475h40.664v6.475" transform="translate(-1131.624 1658.709)"/>
    <path id="path96" class="cls-10" d="M1694.009-1029.775h97.24v-6.475h-97.24Z" transform="translate(-906.265 1658.709)"/>
    <path id="path98" class="cls-12" d="M2283.446-749h57.88v-60.107h-57.88Zm60.888,3.128h-63.9v-66.362h63.9v66.362" transform="translate(-1302.102 1510.301)"/>
    <path id="path100" class="cls-13" d="M2333.3-781.544a4.444,4.444,0,0,1-3.475-1.7L2310.1-808.017a4.819,4.819,0,0,1,.6-6.6,4.406,4.406,0,0,1,6.357.626l15.639,19.647,28.288-49.307a4.425,4.425,0,0,1,6.193-1.629,4.787,4.787,0,0,1,1.564,6.426l-31.568,55.022a4.5,4.5,0,0,1-3.531,2.277c-.113.009-.23.013-.347.013" transform="translate(-1321.429 1532.63)"/>
    <path id="path102" class="cls-10" d="M1843.18-776.736H1694.009v-6.476H1843.18v6.476" transform="translate(-906.265 1491.071)"/>
    <path id="path104" class="cls-10" d="M1831.484-691.056H1694.009v-6.476h137.475v6.476" transform="translate(-906.265 1434.308)"/>
    <path id="path106" class="cls-10" d="M2068.539-733.9h-40.664v-6.476h40.664v6.476" transform="translate(-1131.624 1462.69)"/>
    <path id="path108" class="cls-10" d="M1791.249-733.9h-97.24v-6.476h97.24v6.476" transform="translate(-906.265 1462.69)"/>
    <path id="path110" class="cls-10" d="M1566.836-754.468l4.212-4.068c2.448,3,5.191,4.675,9.009,4.675,3.38,0,5.928-2.133,5.928-5.49,0-3.51-3.085-5.495-7.887-5.495h-2.791l-.979-3.915,9.256-10.224h-14.842v-5.44h22.676v4.675l-9.551,10.175c5.438.815,10.093,3.712,10.093,10.12,0,6.561-4.9,11.241-12,11.241a16.029,16.029,0,0,1-13.126-6.255" transform="translate(-820.423 1491.875)"/>
    <path id="path112" class="cls-10" d="M1649.449-688.29a2.225,2.225,0,0,1,2.18-2.268,2.229,2.229,0,0,1,2.184,2.268,2.225,2.225,0,0,1-2.184,2.263,2.221,2.221,0,0,1-2.18-2.263" transform="translate(-876.187 1429.688)"/>
    <path id="path114" class="cls-10" d="M2065.5-462.339c-12.818,0-23.985-9.455-26.55-22.477a1.923,1.923,0,0,1,1.447-2.273,1.859,1.859,0,0,1,2.188,1.5c2.214,11.236,11.852,19.391,22.915,19.391,10.955,0,20.571-8.06,22.871-19.161a1.854,1.854,0,0,1,2.2-1.481,1.923,1.923,0,0,1,1.426,2.291c-2.661,12.865-13.806,22.207-26.5,22.207" transform="translate(-1139.076 1294.916)"/>
    <path id="path116" class="cls-10" d="M2040.615-555.4a1.938,1.938,0,0,1-.355-.036,1.927,1.927,0,0,1-1.469-2.259c2.462-13.19,13.65-22.766,26.607-22.766,12.45,0,23.261,8.748,26.29,21.271a1.937,1.937,0,0,1-1.352,2.34,1.852,1.852,0,0,1-2.249-1.4,23.532,23.532,0,0,0-22.689-18.356c-11.185,0-20.839,8.262-22.963,19.643a1.873,1.873,0,0,1-1.82,1.562" transform="translate(-1138.969 1356.752)"/>
    <path id="path118" class="cls-10" d="M2040.71-610.135c-18.334,0-33.25,15.489-33.25,34.529s14.915,34.529,33.25,34.529,33.25-15.489,33.25-34.529S2059.044-610.135,2040.71-610.135Zm0,74.538c-21.242,0-38.528-17.946-38.528-40.009s17.286-40.005,38.528-40.005,38.528,17.946,38.528,40.005S2061.956-535.6,2040.71-535.6" transform="translate(-1114.281 1380.036)"/>
    <path id="path120" class="cls-10" d="M2112.519-509.385h-15.258v-2.534h15.258v2.534" transform="translate(-1178.46 1311.34)"/>
    <path id="path122" class="cls-10" d="M2112.519-478.634h-15.258v-2.538h15.258v2.538" transform="translate(-1178.46 1290.97)"/>
    <path id="path124" class="cls-10" d="M2108.641-494.541h-22.46v-2.538h22.46v2.538" transform="translate(-1170.981 1301.508)"/>
    <path id="path126" class="cls-14" d="M1351.663-1023.706s1.2-2.8,1.976-4.131,4.095-5.215,4.662-4.333,2.825,6.8,1.625,8.464.078,4.545-5.9,6.291l-2.366-6.291" transform="translate(-675.182 1656.091)"/>
    <path id="path128" class="cls-15" d="M1147.416-1059.277s30.577,26.505,42.5,24.052c9.323-1.922,23.629-7.016,23.629-7.016l2.865,7.6s-12.833,18.077-26.211,18.194a74.075,74.075,0,0,1-36.361-9.4l-6.421-33.43" transform="translate(-537.315 1673.965)"/>
    <path id="path130" class="cls-16" d="M982.416-240.3s.888,14.868,3.658,15.079c.368.031,14.051.031,14.051.031l17.466-.108s-.114-4.37-5.22-5.292-13.65-4.653-16.743-11.66c-3.253-7.371-13.211,1.949-13.211,1.949" transform="translate(-425.94 1134.564)"/>
    <path id="path132" class="cls-17" d="M979.318-588.2a35.229,35.229,0,0,0,9.455,1.845,33.505,33.505,0,0,0,8.826-1.31s1-10.039,6.5-32.157c2.884-11.592,7-26.5,12.862-45.022,16.2-51.188,21.127-81.135,21.577-83.975.024-.148.033-.22.033-.22l-.053-.027-49.806-22.707s6.156,70.551-1.7,97.632a117.743,117.743,0,0,0-2.85,12.974c-4.96,29.417-4.845,72.967-4.845,72.967" transform="translate(-423.849 1483.492)"/>
    <path id="path134" class="cls-18" d="M1019.985-619.82c2.884-11.592,7-26.5,12.862-45.022,16.2-51.188,21.127-81.135,21.577-83.975,0-.081-.01-.162-.02-.248L1004.6-771.771s6.155,70.551-1.7,97.632c-1.1,3.784,17.085,54.32,17.085,54.32" transform="translate(-439.734 1483.492)"/>
    <path id="path136" class="cls-16" d="M1102.113-240.3s.888,14.868,3.658,15.079c.368.031,14.05.031,14.05.031l17.465-.108s-.114-4.37-5.219-5.292-13.65-4.653-16.743-11.66c-3.254-7.371-13.212,1.949-13.212,1.949" transform="translate(-506.736 1134.564)"/>
    <path id="path138" class="cls-17" d="M1079.017-766.851A764.176,764.176,0,0,1,1072.047-665c-7.617,56.138-5.035,79.965-5.035,79.965a50.5,50.5,0,0,1-7.346,1.94,32.21,32.21,0,0,1-10.9-1.31s-10.9-56.156-7.777-84.253-14.93-96.412-14.93-96.412l52.955-1.782" transform="translate(-455.401 1480.233)"/>
    <path id="path140" class="cls-14" d="M1080.335-1128.211l9.722,6.619,8.856-2.6c1.619-2.4,2.047-7.02,2.071-11.025a71.375,71.375,0,0,0-.348-7.344l-13.117-6.012-4.894-2.236c.014.076.381,4.172.433,4.77a35.918,35.918,0,0,1-2.724,17.829" transform="translate(-492.035 1734.605)"/>
    <path id="path142" class="cls-11" d="M1062.2-971.68c-12.1,12.132-57.9,10.089-60.722-3.276s3.078-113.8,23.749-120.11c4.29-1.309,27.222,6.385,27.222,6.385a155.609,155.609,0,0,1,5.959,22.225c.458,2.421,1.795,28.085,2.8,52.1.467,11.228.861,22.1,1.064,30.06.184,7.452.193,12.352-.067,12.618" transform="translate(-438.364 1697.773)"/>
    <path id="path144" class="cls-19" d="M1090.956-1141.465c2.662,4.671,12,8.761,16.945,10.633a71.42,71.42,0,0,0-.348-7.344l-13.117-6.012c-2.9-.041-4.666.634-3.481,2.723" transform="translate(-498.953 1730.218)"/>
    <path id="path146" class="cls-14" d="M1096.809-1199.731s-21.135,6.845-25.038-6.885-9.26-22.1,4.069-27.054,17.452-.518,19.829,3.735,6.537,28.071,1.14,30.2" transform="translate(-483.26 1790.946)"/>
    <path id="path148" class="cls-20" d="M1075.742-1245.978s-1.348,15.984-4.531,15.291-6.686-2.178-6.22,2.637-3.095,13.077-7.684,13.059c-9.843-.045-20.537-26.271-17.843-31.243,7.775-14.351,47.514-17.249,36.277.256" transform="translate(-464.163 1805.666)"/>
    <path id="path150" class="cls-15" d="M1097.527-1106.972c-.273-.121-15.734-7.321-17.541-6.7s-4.062,6.354-4.062,6.354l27.224,6.39s-2.143-4.522-5.621-6.044" transform="translate(-489.058 1710.026)"/>
    <path id="path152" class="cls-21" d="M1241.722-880.182l-86.666,84.74c-1.7,1.66-3.841,2.187-4.76,1.174l-2.926-3.226c-.919-1.012-.282-3.2,1.417-4.865l86.669-84.735c1.7-1.661,3.839-2.192,4.758-1.179l2.925,3.227c.923,1.017.282,3.2-1.417,4.865" transform="translate(-537 1561.015)"/>
    <path id="path156" class="cls-21" d="M1390.564-1202.07a61.106,61.106,0,0,1,56.29-19.494,61.427,61.427,0,0,1,32.149,16.7c25.168,24.588,26.373,65.7,2.7,91.836a61.8,61.8,0,0,1-31.1,18.7,60.883,60.883,0,0,1-57.339-15.9c-25.168-24.588-26.377-65.7-2.7-91.845m-19.418,65.106a70.589,70.589,0,0,0,18.438,30.793c27.322,26.694,70.317,25.331,96.022-3.037,25.367-28.008,24.423-71.843-1.868-98.645q-.52-.54-1.066-1.067c-27.317-26.7-70.308-25.344-96.014,3.033a72.5,72.5,0,0,0-15.513,68.922" transform="translate(-686.345 1785.802)"/>
    <path id="path158" class="cls-22" d="M1407.3-1065.015c-.134-.126-.264-.252-.394-.382a65.363,65.363,0,0,1-18.486-34.583A205.635,205.635,0,0,1,1407.3-1080v14.985m-15.357-72.535a65.246,65.246,0,0,1,12.268-19.692q1.5-1.654,3.09-3.182v22.7c-1.863-.059-3.8-.09-5.807-.09-3.063,0-6.266.077-9.551.261" transform="translate(-699.995 1740.974)"/>
    <path id="path160" class="cls-23" d="M1404.79-1035.612a205.622,205.622,0,0,0-18.88-19.98,67.478,67.478,0,0,1,3.523-37.571c3.285-.184,6.487-.261,9.551-.261,2,0,3.943.031,5.807.09v57.722" transform="translate(-697.481 1696.587)"/>
    <path id="path162" class="cls-24" d="M1462.974-1075.986a61.418,61.418,0,0,1-10.279-6.174,62.9,62.9,0,0,1-6.179-5.229V-1182.8c.377-.36.754-.716,1.135-1.067a61.952,61.952,0,0,1,15.323-10.332v118.211" transform="translate(-739.208 1763.349)"/>
    <path id="path164" class="cls-25" d="M1523.156-1081.637q-1.755,0-3.51-.1a60.5,60.5,0,0,1-22.49-5.765v-118.21a60.67,60.67,0,0,1,26.026-5.868,60.423,60.423,0,0,1,10.716.958,60.944,60.944,0,0,1,25.835,11.277,63.571,63.571,0,0,1,6.314,5.418,64.434,64.434,0,0,1,7.4,8.617,65.513,65.513,0,0,1,9.191,18.446h-21.5v6.475h23.192a67.924,67.924,0,0,1,1.166,7.983h-24.357v6.476h24.6a67.5,67.5,0,0,1-.55,7.983h-24.054v6.476h22.9a65.5,65.5,0,0,1-15.288,29.38,61.8,61.8,0,0,1-31.1,18.7,60.62,60.62,0,0,1-14.486,1.755m28.808-53.712a2.271,2.271,0,0,0-2.227,2.313,2.275,2.275,0,0,0,2.227,2.318,2.278,2.278,0,0,0,2.232-2.318,2.274,2.274,0,0,0-2.232-2.313m-18.759-26.559a5.352,5.352,0,0,1,5.659,5.67c0,3.272-1.755,5.612-6.561,9.819l-12.06,10.656v5.045h25.324v-5.616H1528.9l7.206-6.237c6.158-5.3,9.109-8.365,9.109-14.085,0-6.6-4.7-10.967-11.561-10.967-6.253,0-9.559,2.754-12.909,7.641l4.351,3.532c2.7-3.636,4.905-5.458,8.108-5.458" transform="translate(-773.389 1774.867)"/>
    <path id="path166" class="cls-26" d="M1593.52-1044.426H1568.2v-5.044l12.059-10.656c4.806-4.208,6.561-6.547,6.561-9.819a5.352,5.352,0,0,0-5.659-5.67c-3.2,0-5.4,1.823-8.108,5.458l-4.351-3.533c3.35-4.887,6.656-7.641,12.909-7.641,6.86,0,11.561,4.365,11.561,10.966,0,5.719-2.951,8.784-9.109,14.085l-7.206,6.237h16.666v5.616" transform="translate(-821.341 1688.575)"/>
    <path id="path168" class="cls-26" d="M1661.17-981.074a2.275,2.275,0,0,1-2.227-2.317,2.271,2.271,0,0,1,2.227-2.313,2.274,2.274,0,0,1,2.232,2.313,2.278,2.278,0,0,1-2.232,2.317" transform="translate(-882.595 1625.222)"/>
    <path id="path170" class="cls-26" d="M1717.2-1072.615h-23.192v-6.475h21.5a66.906,66.906,0,0,1,1.69,6.475" transform="translate(-906.265 1687.091)"/>
    <path id="path172" class="cls-26" d="M1716.907-986.935h-22.9v-6.476h24.054q-.422,3.26-1.157,6.476" transform="translate(-906.265 1630.328)"/>
    <path id="path174" class="cls-26" d="M1718.614-1029.775h-24.6v-6.475h24.358c.134,1.552.212,3.114.238,4.671.013.6.013,1.2.009,1.8" transform="translate(-906.265 1658.709)"/>
    <path id="path176" class="cls-27" d="M1447.257-1057.62c-1.174,0-2.344-.036-3.519-.1q1.755.1,3.51.1a60.624,60.624,0,0,0,14.486-1.755,61.8,61.8,0,0,0,31.1-18.7,65.5,65.5,0,0,0,15.288-29.38q.735-3.213,1.157-6.475a67.5,67.5,0,0,0,.55-7.983c0-.6,0-1.2-.009-1.8a66.136,66.136,0,0,1-16.987,45.643,61.751,61.751,0,0,1-31.1,18.7,60.579,60.579,0,0,1-14.478,1.755m-36.287-12.042a63.61,63.61,0,0,1-6.574-5.612c-25.168-24.588-26.377-65.7-2.7-91.84q2.035-2.248,4.225-4.253-.572.527-1.135,1.067-1.586,1.525-3.09,3.182a65.245,65.245,0,0,0-12.267,19.692,67.478,67.478,0,0,0-3.523,37.57,65.362,65.362,0,0,0,18.486,34.583c.13.13.26.257.394.382a62.9,62.9,0,0,0,6.179,5.229m86.567-91.634a64.434,64.434,0,0,0-7.4-8.618,63.558,63.558,0,0,0-6.314-5.418,64.11,64.11,0,0,1,6.314,5.414,64.744,64.744,0,0,1,7.4,8.622" transform="translate(-697.481 1750.85)"/>
    <path id="path178" class="cls-15" d="M1098.792-928.5c-47.755-35.338-43.784-82.494-43.784-82.494,17.455,10.224,34.774,32.827,42.721,52.434.467,11.227.862,22.1,1.063,30.06" transform="translate(-474.885 1641.979)"/>
    <path id="path180" class="cls-14" d="M1323.041-821.941a13.006,13.006,0,0,0,6.1-3.911s1.434.1-.239,3.285c-.139.266-.451.95-.685,1.431a.311.311,0,0,0,.251.445c1.941.153,3.9-.648,7.639.167.516.108.667,1.4.646,1.944a5.061,5.061,0,0,1-1.005,3.384c-.6.828-2.284,1.714-6.032,3.28-1.43.6-5.512.148-9.338-1.215l-3.057-1.472.948-5.9.768.167c1.219.266,2.73-1.282,4-1.607" transform="translate(-652.002 1519.32)"/>
    <path id="path182" class="cls-11" d="M1067.928-1075.837s-42.909,8.487,12.624,73.013c8.882,10.319,56.866,23.755,56.866,23.755s4.867-4.3,2.414-7.78c0,0-33.039-24.916-40.308-28.877-3.27-1.782-12.692-39.766-18.023-48.915a24.085,24.085,0,0,0-13.573-11.2" transform="translate(-472.985 1684.935)"/>
    <path id="path184" class="cls-14" d="M1355.237-1025.836a23.1,23.1,0,0,0,1.677-4.257,23.981,23.981,0,0,1,2.769-6.507c.295-.3,1.252.09,1.365,1.386a7.7,7.7,0,0,1-.689,2.817c-.767,1.993-.641,4.7-.906,5.6-.663,2.245-4.216.958-4.216.958" transform="translate(-677.594 1659.005)"/>
    <path id="path186" class="cls-9" d="M1791.289-284.586a18.252,18.252,0,0,0,.134,2.241,18.918,18.918,0,0,0,2.015,6.552,18.282,18.282,0,0,0,3.037,4.207,17.328,17.328,0,0,0,12.515,5.382h248.963c9.78,0,17.71-8.23,17.71-18.382a18.661,18.661,0,0,0-5.191-13,17.309,17.309,0,0,0-12.519-5.387H1808.99c-9.776,0-17.7,8.23-17.7,18.387" transform="translate(-971.929 1172.913)"/>
    <path id="path188" class="cls-9" d="M1844.086-323.9h85.358a2.778,2.778,0,0,0,2.717-2.822,2.778,2.778,0,0,0-2.717-2.821h-85.358a2.778,2.778,0,0,0-2.717,2.821,2.778,2.778,0,0,0,2.717,2.822" transform="translate(-1005.732 1190.518)"/>
    <path id="path190" class="cls-28" d="M1864.236-309.5h9.252v-3.33h-9.252v3.33" transform="translate(-1021.168 1179.441)"/>
    <path id="path192" class="cls-28" d="M1797.9-222.439a18.275,18.275,0,0,0,3.037,4.207,17.328,17.328,0,0,0,12.515,5.382h52.737v-9.589H1797.9" transform="translate(-976.392 1119.56)"/>
    <path id="path194" class="cls-13" d="M2177.069-289.972V-279.2a13.577,13.577,0,0,1-.433,3.411,12.6,12.6,0,0,1-12.081,9.589H1905.217a12.6,12.6,0,0,1-12.077-9.589,13.578,13.578,0,0,1-.438-3.411v-10.768a12.766,12.766,0,0,1,12.515-13h259.337a12.763,12.763,0,0,1,12.515,13" transform="translate(-1040.382 1172.913)"/>
    <path id="path196" class="cls-29" d="M2177.544-222.439a12.6,12.6,0,0,1-12.082,9.589H1906.126a12.6,12.6,0,0,1-12.077-9.589h283.5" transform="translate(-1041.291 1119.56)"/>
    <path id="path198" class="cls-11" d="M2688.42-284.518a20.877,20.877,0,0,0,5.152,14.193c.069.077.139.148.208.225a12.351,12.351,0,0,0,8.888,4.027c5.248,0,18.261-8.226,26.325-13.689,4.017-2.723,6.808-4.757,6.808-4.757s-2.791-2.038-6.808-4.761c-8.064-5.467-21.077-13.694-26.325-13.694a11.378,11.378,0,0,0-4.359.878,14.345,14.345,0,0,0-6,4.918,20.737,20.737,0,0,0-3.61,9l-.013.121a23.574,23.574,0,0,0-.264,3.542" transform="translate(-1577.491 1172.913)"/>
    <path id="path200" class="cls-15" d="M2688.42-255.245a20.877,20.877,0,0,0,5.152,14.193l39.915-14.26-44.8-3.474a23.574,23.574,0,0,0-.264,3.541" transform="translate(-1577.491 1143.64)"/>
    <path id="path202" class="cls-30" d="M2700.38-295.454l39.819,11.29-33.817-16.209a14.346,14.346,0,0,0-6,4.919" transform="translate(-1585.565 1171.191)"/>
    <path id="path204" class="cls-31" d="M2805.26-257.638a5.127,5.127,0,0,0,2.6,4.756c4.017-2.722,6.808-4.756,6.808-4.756s-2.791-2.039-6.808-4.761a5.12,5.12,0,0,0-2.6,4.761" transform="translate(-1656.358 1146.033)"/>
    <path id="path206" class="cls-20" d="M2913.463-1248.118c-6.6-3.551-11.878-1.318-11.878-1.318-20.18-2.461-26.065,21.978-25.792,30.384s1.2,17.442-7.813,28.363c-26.03,31.554,28.483,32.949,28.483,32.949.464-25.214,29.567-16.011,28.288-13.459,37.305,9.3,3.709-68.837-11.288-76.919" transform="translate(-1693.941 1800.403)"/>
    <path id="path208" class="cls-14" d="M2738.721-960.781s-3.549-5.607-6.409-5.719-8.155-1.647-7.73-.549,3.7,1.211,4.021,1.872-4.87,1.647-6.353,1.76-4.979,0-4.875.77,6.3,3.96,10.673,3.519,9.772,1.323,9.772,1.323l.9-2.974" transform="translate(-1597.034 1613.124)"/>
    <path id="path210" class="cls-17" d="M2829.9-1030.253a55.5,55.5,0,0,1-5.43,8.523c-4.216,5.486-10.717,11.822-18.88,13.073a19.608,19.608,0,0,1-11.219-1.895h-.013c-9.915-4.572-17.368-15.084-17.368-15.084a8.708,8.708,0,0,1,1.114-8.3s20.02,4.675,21.927,3.685,13.628-27.995,15.739-32.495c4.489-9.562,11.609-12.3,11.609-12.3l2.522,44.8" transform="translate(-1636.897 1684.414)"/>
    <path id="path212" class="cls-18" d="M2861.745-938.689c-4.216,5.485-10.716,11.822-18.88,13.073a19.613,19.613,0,0,1-11.219-1.895c.391.054,10.292,1.327,14.24-6.008,4.025-7.479,8.376-19.359,14.356-15.4,2.583,1.71,2.465,5.954,1.5,10.229" transform="translate(-1674.169 1601.373)"/>
    <path id="path214" class="cls-16" d="M3124.814-282.779s6.105,5.792,4.914,9.9-6.7,6.854-7.449,11.88-3.722,7.771-6.4,7.771h-12.788s-1.972-3.537,2.795-4.6,6.565-6.975,6.266-12.461a100.178,100.178,0,0,1,.447-12.8l10.131-2.435,2.089,2.74" transform="translate(-1857.118 1161.35)"/>
    <path id="path216" class="cls-16" d="M2939.4-270.119s2.2,24.525-.485,25.9l-34.32-.072s0-4.113,5.512-5.027,15.2-4.266,16.835-11.732,12.458-9.067,12.458-9.067" transform="translate(-1723.408 1151.148)"/>
    <path id="path218" class="cls-17" d="M2964.136-1052.573a147.337,147.337,0,0,1,0,16.474c-.342,5.954-6.144,13.932-6.964,15.908-2.067,4.95-4.4,5.756-4.4,5.756l-18.018,4.585-6.335,1.611-19.985-6.2s-9.1-26.379-5.443-41.229a116.782,116.782,0,0,1,9.234-25.164s13.546-5.553,37.535-1.4l14.374,29.66" transform="translate(-1721.743 1690.192)"/>
    <path id="path220" class="cls-32" d="M3010.378-947.146c-.342,5.958-.871,11.5-1.69,13.477-2.067,4.95-4.4,5.756-4.4,5.756l-18.018,4.585-7.826-2.389s26.125-4.113,23.231-27.454l8.7,6.025" transform="translate(-1773.259 1603.669)"/>
    <path id="path222" class="cls-15" d="M2903.558-866.478s-9.9,31.986-10.53,42.876,18.915,154.7,19.7,159.714c.741,4.734,6.4,7.749,6.4,7.749a8.284,8.284,0,0,0,6.313.5c5.152-1.512,6.782-3.321,6.782-3.321s7.7-102.564,2.933-139.2a602.324,602.324,0,0,1-4.823-68.324h-26.771" transform="translate(-1715.592 1546.235)"/>
    <path id="path224" class="cls-11" d="M2974.142-869.291s15.1,21.028,16.5,35.244,2.21,64.157,5.209,78.017,14.01,40.531,14.01,83.763a8.4,8.4,0,0,1-4.68,3.794,37.178,37.178,0,0,1-4.112,1.184,6.4,6.4,0,0,1-7.237-3.569c-7.449-15.57-31.17-65.785-32.387-76.207-.858-7.38-8.35-56.2-24.687-84.852-3.921-6.876,2.409-34.227,2.409-34.227l34.974-3.145" transform="translate(-1744.255 1548.099)"/>
    <path id="path226" class="cls-28" d="M2919.424-881.1s3.974,3.263,11.865,3.429c9.425.2,32.781-2.5,32.781-2.5a20.716,20.716,0,0,1,1,6.192s-28.527,7.474-45.058,1.093c0,0-2.132-4.167-.585-8.217" transform="translate(-1733.039 1555.925)"/>
    <path id="path228" class="cls-1" d="M2941.2-874.424c-1.586,0-2.877,1.6-2.877,3.573s1.292,3.578,2.877,3.578,2.873-1.607,2.873-3.578S2942.789-874.424,2941.2-874.424Zm0,8.631c-2.371,0-4.3-2.268-4.3-5.058s1.933-5.053,4.3-5.053,4.3,2.268,4.3,5.053-1.932,5.058-4.3,5.058" transform="translate(-1745.215 1552.48)"/>
    <path id="path230" class="cls-9" d="M3019.808-939.4l-23.166,20.948a3.918,3.918,0,0,1-5.673-.409l-29.557-35.249a4.287,4.287,0,0,1,.394-5.886l23.162-20.947a3.917,3.917,0,0,1,5.672.4L3020.2-945.29a4.287,4.287,0,0,1-.39,5.886" transform="translate(-1761.095 1622.752)"/>
    <path id="path232" class="cls-14" d="M3012.126-863.678c-.329.094-12.307,1.552-12.307,4.122,0,2.974,3.51,6.953,6.817,6.768,1.343-.076,7.523-5.976,7.523-5.976l-2.032-4.914" transform="translate(-1787.685 1544.38)"/>
    <path id="path234" class="cls-14" d="M2980.46-1112.939c-1.365-3.429-2.158-8.658-2.136-15.125l-.906.185-15.21,3.127s.346,4.972.355,9.652v.117c.017,4.068-2.648,8.15,3.635,9.765,1.941.5,17.121-.513,14.261-7.722" transform="translate(-1762.169 1719.536)"/>
    <path id="path236" class="cls-33" d="M2962.606-1124.39s.347,4.973.355,9.653c8.51-.248,13.013-8.312,14.855-12.78l-15.21,3.127" transform="translate(-1762.567 1719.173)"/>
    <path id="path238" class="cls-14" d="M2939.923-1174.394s20.142.347,20.155-12.681,2.621-21.758-10.235-22.532-15.366,4.2-16.389,8.545,1.23,26.244,6.469,26.667" transform="translate(-1742.726 1773.61)"/>
    <path id="path240" class="cls-20" d="M2956.153-1215.584s5.512,15.282,13.975,17.541,12.134-.094,12.134-.094a25.054,25.054,0,0,1-7.839-14.7s-14.109-10.021-18.27-2.745" transform="translate(-1758.211 1779.272)"/>
    <path id="path242" class="cls-20" d="M2939.173-1211.608s-4.091,1.588-5.772,4.684a21.708,21.708,0,0,0-2.722,11.961s-4.156-10.386.511-16.268c4.953-6.228,7.982-.378,7.982-.378" transform="translate(-1739.866 1776.534)"/>
    <path id="path244" class="cls-14" d="M3020.811-865.1a13.244,13.244,0,0,0-4.788-.675c-1.92.279-3.337-.041-3.337.517s2.474.819,3,1.085,5.122-.927,5.122-.927" transform="translate(-1796.37 1545.805)"/>
    <path id="path246" class="cls-17" d="M3035.228-1079.211s14.3,1.039,19.777,14.873,15.877,37.067,15.877,40.972-5.807,15.952-37,22.883c0,0-3.224-3.528-3.029-6.314,0,0,19.474-17.37,19.422-19.4-.1-3.838-3.194-8.91-20.289-26.667-4.65-4.828,5.243-26.348,5.243-26.348" transform="translate(-1807.208 1687.17)"/>
    <path id="path248" class="cls-28" d="M1487.032-2298.549s-11.47-2.012-18.742,3.694-8.437,3.861-12.541,7.385.1,7.718-2.167,10.066-2.349,6.88,1.005,8.055,1.1,7.556,8.368,8.393,4.013,4.333,10.911,4.865,12.6.779,16.237,2.363,6.929-.054,7.969-2.925,3.948.833,4.8-3.1-2.18-5.481-.485-8.667,5.893-25.848-15.353-30.128" transform="translate(-742.886 2495.209)"/>
    <path id="path250" class="cls-14" d="M1619.411-1672.522a3.029,3.029,0,0,0-.485,3.15l.009.018c.746,2.093,3.176,4.415,6,6.737.36.3.68.567.962.819.074.063.147.13.217.2.057.05.108.1.165.153,2.635,2.484,1.651,3.064,6.387,8.113,5.4,5.751,9.087,5.828,10.136,5.292.884-.454-.94-3.514-2.964-6.948-.1-.167-.195-.337-.295-.5-.269-.454-.537-.918-.806-1.382-2.371-4.135-1.781-6.088-1.27-12.276.42-5.027,7.336-28.121,7.336-28.121l-10.283-1.764s-2.968,18.373-6.353,21.222c-1.816,1.521-3.852,1.557-5.6,2.687-.121.076-.243.157-.36.239a13.557,13.557,0,0,0-2.8,2.367" transform="translate(-855.427 2097.804)"/>
    <path id="path252" class="cls-28" d="M1619.411-1625.59a3.029,3.029,0,0,0-.485,3.15l.009.018c.91,2.088,3.28,4.4,6.006,6.714.36.3.672.581.953.841.074.063.147.13.217.2.056.049.108.1.165.153,2.635,2.484,1.651,3.064,6.387,8.114,5.4,5.751,9.087,5.827,10.136,5.292.884-.455-.94-3.514-2.964-6.948a22.87,22.87,0,0,1-9.6-7.241c-3.254-4.252-5.447-9.734-7.666-12.9-.121.077-.243.158-.36.239a13.553,13.553,0,0,0-2.795,2.367" transform="translate(-855.427 2050.872)"/>
    <path id="path254" class="cls-14" d="M1858.19-1687.156c.654,3.285,5.17,2.7,10.209,1.386s3.852.216,11.028-.666,9.338-3.677,9.551-4.784c.191-.99-3.363-1.31-7.176-1.737-.477-.054-.958-.108-1.439-.166-4.3-.531-7.475-3.389-11.4-5.724-3.714-2.218-9.295-11.308-9.295-11.308l-9.85.882s5.226,8.118,7.25,11.651c1.192,2.079,1.148,4.838,1.019,6.966a13.535,13.535,0,0,0,.1,3.5" transform="translate(-1011.439 2105.171)"/>
    <path id="path256" class="cls-28" d="M1885.438-1652.009c5.04-1.318,3.853.216,11.028-.666s9.338-3.677,9.551-4.783c.191-.99-3.363-1.31-7.176-1.737l-.035.077a19.787,19.787,0,0,1-10.266,3.4c-4.875.157-10.049-1.255-13.412-1.175a13.536,13.536,0,0,0,.1,3.5c.654,3.285,5.17,2.7,10.209,1.386" transform="translate(-1028.477 2071.41)"/>
    <path id="path258" class="cls-34" d="M1688.583-1867.064l-9.039,25.808-11.8,33.7a18.732,18.732,0,0,1-6.392-.562,27.2,27.2,0,0,1-6.2-3.078s3.094-36.108,9.182-56.871c1.56-5.328,3.319-9.643,5.278-12.078,9.577-11.921,18.967,13.081,18.967,13.081" transform="translate(-880.039 2219.923)"/>
    <path id="path260" class="cls-13" d="M1544.042-1964.895c-6.045-1.976-23.24.747-40.508,4.387l-3.662-6.174-37.366-2.754s-11.7,26.879-5.261,46.5c1.248,3.807,7.232,3.942,7.232,3.942s21.892.248,29.107.2c18.573-.135,39.217-13.545,41.895-14.125,4.385-.941,6.2,8.163,10.66,17.7s41.552,42.1,41.552,42.1,5.668.018,8-.914a7.921,7.921,0,0,0,3.423-2.277s-41.435-84.128-55.077-88.587" transform="translate(-745.144 2276.943)"/>
    <path id="path262" class="cls-14" d="M1518.287-2180.892c.061.036-6.526,2.426-10.955.428-4.164-1.876-7.358-8.946-7.3-8.951,1.889-.1,3.952-1.836,5.473-13.1l.806.293,13.559,4.954s-.949,4.513-1.556,8.811c-.507,3.6-.771,7.061-.03,7.564" transform="translate(-775.332 2431.358)"/>
    <path id="path264" class="cls-35" d="M1532.915-2196.694s-.581,3.164-1.382,7.686c-7.778-1.4-11.054-8.289-12.177-12.641l13.559,4.954" transform="translate(-788.374 2430.784)"/>
    <path id="path266" class="cls-14" d="M1532.092-2240.021s-18.525-2.443-16.883-14.4.36-20.322,12.255-19.269,13.563,5.958,13.949,10.089-4.463,23.908-9.321,23.58" transform="translate(-785.505 2478.571)"/>
    <path id="path268" class="cls-28" d="M1529.567-2272.242s-11.774,10.688-19.825,11.6-11.119-1.75-11.119-1.75a32.516,32.516,0,0,0,7.531-10.76,5.69,5.69,0,0,1,4.65-3.5c5.75-.558,16.653-.873,18.763,4.41" transform="translate(-774.379 2480.669)"/>
    <path id="path270" class="cls-28" d="M1571.036-2270.237s3.991,3.951,5.256,6.894c1.226,2.84,1.634,9.648.693,12.362,0,0,6.088-12.514,2.552-18.549-3.753-6.395-8.5-.707-8.5-.707" transform="translate(-823.258 2477.768)"/>
    <path id="path272" class="cls-11" d="M1501.568-2127.9c-.3,38.9.052,30.771-4.017,34.493-.984.9-3.757,1.449-7.406,1.723-11.483.878-31.685-.94-32.47-3.141-2.7-7.6-.845-9.99-3.137-21.649-.238-1.242-.533-2.583-.875-4.046-1.9-8.006-3.714-10.723,2.739-23.656,5.85-11.714,11.947-21.231,12.5-20.894,15.713,9.531,16.917,1.413,16.917,1.413s15.89,16.781,15.747,35.757" transform="translate(-742.836 2406.554)"/>
    <path id="path274" class="cls-13" d="M1679.544-1811.225l-11.8,33.7a18.736,18.736,0,0,1-6.392-.562,27.2,27.2,0,0,1-6.2-3.078s3.094-36.108,9.182-56.871l15.206,26.811" transform="translate(-880.039 2189.891)"/>
    <path id="path276" class="cls-11" d="M1556.29-2160.861s16.116,2.713,18.057,9.9,13.351,49.414,13.351,49.414-8.173,1.584-11.982-2.313-13.4-36.328-13.4-36.328l-6.023-20.673" transform="translate(-813.304 2403.763)"/>
    <path id="path278" class="cls-15" d="M1495.643-2028.151c-11.483.877-31.685-.941-32.47-3.141-2.7-7.605-.845-9.99-3.137-21.65l5.43-16.24s-.793,18.045,4.364,22.752,21.038,9.009,23.556,12.956a14.823,14.823,0,0,1,2.258,5.323" transform="translate(-748.333 2343.025)"/>
    <path id="path280" class="cls-14" d="M1528.943-1973.541s11.314-2.7,13.147-1.674,6.331,4.8,6.9,6.12-4.078-.976-5.586-1.381c-.975-.266-3.536.679-4.806,1.129-5.334,1.89-8.619.963-8.619.963l-1.036-5.157" transform="translate(-794.845 2280.927)"/>
    <path id="path282" class="cls-11" d="M1428.855-2165.074s-15.21,1.084-20.423,8.752c-7.345,10.8-21.74,56.673-13.269,62.712,9.538,6.8,43.216,1.485,43.216,1.485s1.088-5.454-.494-8.078-26.971-6.691-28.149-7.9,14.469-23.814,14.447-27.459,4.672-29.511,4.672-29.511" transform="translate(-702.795 2406.554)"/>
    <path id="path284" class="cls-14" d="M1571.156-1965.062s2.4,3.164,3.176,3.537a2.244,2.244,0,0,0,1.283.275l-1.621-2.979-2.838-.833" transform="translate(-823.339 2274.046)"/>
    <path id="path286" class="cls-14" d="M1569.4-1974.755l6.929,3.429a1.209,1.209,0,0,1-1.14.468,15.767,15.767,0,0,1-3-.833l-2.786-3.064" transform="translate(-822.151 2280.468)"/>
    <path id="path288" class="cls-28" d="M1576.383-2023.665l54.609-.4,16.138-42.543-54.522.4-16.224,42.543" transform="translate(-826.867 2341.321)"/>
    <path id="path290" class="cls-28" d="M1596.583-1945.475l-72.107.531.009,1.651,71.469-.522.628-1.661" transform="translate(-791.83 2261.07)"/>
    <path id="path292" class="cls-2" d="M1690.546-2008.375a1.955,1.955,0,0,0-1.876-2.687,3.745,3.745,0,0,0-3.324,2.722,1.95,1.95,0,0,0,1.872,2.687,3.755,3.755,0,0,0,3.328-2.722" transform="translate(-900.349 2304.521)"/>
    <path id="path294" class="cls-36" d="M717.652-284.587H757.5c2.135-1.881-1.478-6.151-5.253-6.439a22.473,22.473,0,0,0-6.082.747c-.548-7.564-3.68-41.562-15.482-40.2-13.27,1.53,0,14.976,3.752,22.932a194.012,194.012,0,0,1,7.05,18.342c-1.078.243-2.193.482-3.332.7-1.759-5.607-8.3-24.471-16.626-23.373-9.772,1.287-5.844,8.851,1.082,13.338,5.081,3.3,11.321,8,14.285,10.264a41.139,41.139,0,0,1-7.793.648c-6.826-.171-10.158,1.922-11.449,3.042" transform="translate(-245.886 1191.162)"/>
    <path id="path296" class="cls-36" d="M3282.449-294.459h-44.092c-2.362-2.083,1.638-6.809,5.815-7.124a24.916,24.916,0,0,1,6.73.824c.6-8.366,4.069-45.986,17.125-44.474,14.681,1.692,0,16.569-4.147,25.371a213.915,213.915,0,0,0-7.8,20.3c1.191.266,2.422.526,3.683.769,1.946-6.205,9.187-27.077,18.4-25.862,10.812,1.427,6.465,9.792-1.2,14.76-5.62,3.654-12.523,8.847-15.8,11.354a44.921,44.921,0,0,0,8.619.716c7.553-.185,11.241,2.128,12.671,3.37" transform="translate(-1948.223 1200.94)"/>
    <path id="path298" class="cls-28" d="M1505.824-191.473H513.491a1.289,1.289,0,0,1-1.259-1.309v-.8a1.289,1.289,0,0,1,1.259-1.31h992.333a1.289,1.289,0,0,1,1.257,1.31v.8a1.289,1.289,0,0,1-1.257,1.309" transform="translate(-108.566 1101.31)"/>
    <text id="TODO_LIST" data-name="TODO LIST" class="cls-37" transform="translate(788.346 463.246)"><tspan x="0" y="0">TODO LIST</tspan></text>
  </g>
</svg>
